<svg width="17" height="18" viewBox="0 0 17 18" fill="none" xmlns="http://www.w3.org/2000/svg">
<path d="M6.91113 0.159545C7.90756 -0.107452 8.96485 -0.0377701 9.91797 0.35681C10.871 0.751527 11.6676 1.44997 12.1836 2.34314C12.3274 2.59224 12.2423 2.91122 11.9932 3.05505C11.7442 3.19857 11.4261 3.11343 11.2822 2.86462C10.8809 2.16977 10.2609 1.62578 9.51953 1.31872C8.77826 1.0119 7.9556 0.958734 7.18066 1.16638C6.40576 1.37419 5.72084 1.83165 5.23242 2.46814C4.7439 3.10476 4.4786 3.88541 4.47852 4.68786V6.66736H13.958C15.1661 6.66736 16.1455 7.64673 16.1455 8.85486V15.5209C16.1454 16.7289 15.166 17.7084 13.958 17.7084H2.29199C1.08396 17.7084 0.104636 16.7289 0.104492 15.5209V8.85486C0.104492 7.64673 1.08387 6.66736 2.29199 6.66736H3.4375V4.68689C3.4377 3.65534 3.77828 2.65275 4.40625 1.83435C5.03431 1.01588 5.91465 0.426668 6.91113 0.159545ZM2.29199 7.70837C1.65917 7.70837 1.14551 8.22203 1.14551 8.85486V15.5209C1.14565 16.1536 1.65925 16.6674 2.29199 16.6674H13.958C14.5907 16.6674 15.1043 16.1536 15.1045 15.5209V8.85486C15.1045 8.22203 14.5908 7.70837 13.958 7.70837H2.29199ZM8.125 10.8334C8.8725 10.8335 9.47911 11.4394 9.47949 12.1869C9.47949 12.9347 8.87274 13.5412 8.125 13.5414C7.37726 13.5412 6.77148 12.9347 6.77148 12.1869C6.77187 11.4394 7.3775 10.8335 8.125 10.8334ZM8.125 11.8744C7.9528 11.8746 7.81288 12.0147 7.8125 12.1869C7.8125 12.3594 7.95256 12.4992 8.125 12.4994C8.29744 12.4992 8.4375 12.3594 8.4375 12.1869C8.43712 12.0147 8.2972 11.8746 8.125 11.8744Z" fill="#737373"/>
</svg>
